<?xml version="1.0" encoding="utf-8" standalone="no"?>
<!DOCTYPE svg PUBLIC "-//W3C//DTD SVG 1.1//EN"
  "http://www.w3.org/Graphics/SVG/1.1/DTD/svg11.dtd">
<!-- Created with matplotlib (https://matplotlib.org/) -->
<svg height="569.370898pt" version="1.1" viewBox="0 0 712.906445 569.370898" width="712.906445pt" xmlns="http://www.w3.org/2000/svg" xmlns:xlink="http://www.w3.org/1999/xlink">
 <metadata>
  <rdf:RDF xmlns:cc="http://creativecommons.org/ns#" xmlns:dc="http://purl.org/dc/elements/1.1/" xmlns:rdf="http://www.w3.org/1999/02/22-rdf-syntax-ns#">
   <cc:Work>
    <dc:type rdf:resource="http://purl.org/dc/dcmitype/StillImage"/>
    <dc:date>2021-05-02T15:37:47.276517</dc:date>
    <dc:format>image/svg+xml</dc:format>
    <dc:creator>
     <cc:Agent>
      <dc:title>Matplotlib v3.3.4, https://matplotlib.org/</dc:title>
     </cc:Agent>
    </dc:creator>
   </cc:Work>
  </rdf:RDF>
 </metadata>
 <defs>
  <style type="text/css">*{stroke-linecap:butt;stroke-linejoin:round;}</style>
 </defs>
 <g id="figure_1">
  <g id="patch_1">
   <path d="M 0 569.370898 
L 712.906445 569.370898 
L 712.906445 0 
L 0 0 
z
" style="fill:none;"/>
  </g>
  <g id="axes_1">
   <g id="patch_2">
    <path d="M 54.931445 516.019531 
L 351.106445 516.019531 
L 351.106445 28.119531 
L 54.931445 28.119531 
z
" style="fill:#eaeaf2;"/>
   </g>
   <g id="matplotlib.axis_1">
    <g id="xtick_1">
     <g id="line2d_1">
      <path clip-path="url(#p7c0c47f6be)" d="M 54.931445 516.019531 
L 54.931445 28.119531 
" style="fill:none;stroke:#ffffff;stroke-linecap:round;"/>
     </g>
     <g id="text_1">
      <!-- $0 -->
      <g style="fill:#262626;" transform="translate(47.285156 535.361523)scale(0.1375 -0.1375)">
       <defs>
        <path d="M 24.90625 -10.296875 
L 24.90625 -1.515625 
Q 18.3125 -0.6875 14.1875 1.4375 
Q 10.0625 3.5625 7.046875 8.296875 
Q 4.046875 13.03125 3.5625 19.875 
L 12.40625 21.53125 
Q 13.421875 14.453125 16.015625 11.140625 
Q 19.734375 6.453125 24.90625 5.90625 
L 24.90625 33.890625 
Q 19.484375 34.90625 13.8125 38.09375 
Q 9.625 40.4375 7.34375 44.578125 
Q 5.078125 48.734375 5.078125 54 
Q 5.078125 63.375 11.71875 69.1875 
Q 16.15625 73.09375 24.90625 73.96875 
L 24.90625 78.171875 
L 30.078125 78.171875 
L 30.078125 73.96875 
Q 37.75 73.25 42.234375 69.484375 
Q 48 64.703125 49.171875 56.34375 
L 40.09375 54.984375 
Q 39.3125 60.15625 36.84375 62.90625 
Q 34.375 65.671875 30.078125 66.546875 
L 30.078125 41.21875 
Q 36.71875 39.546875 38.875 38.625 
Q 42.96875 36.8125 45.546875 34.21875 
Q 48.140625 31.640625 49.53125 28.078125 
Q 50.921875 24.515625 50.921875 20.359375 
Q 50.921875 11.234375 45.109375 5.125 
Q 39.3125 -0.984375 30.078125 -1.421875 
L 30.078125 -10.296875 
z
M 24.90625 66.65625 
Q 19.78125 65.875 16.828125 62.546875 
Q 13.875 59.234375 13.875 54.6875 
Q 13.875 50.203125 16.375 47.171875 
Q 18.890625 44.140625 24.90625 42.328125 
z
M 30.078125 5.90625 
Q 35.203125 6.546875 38.546875 10.34375 
Q 41.890625 14.15625 41.890625 19.78125 
Q 41.890625 24.5625 39.515625 27.46875 
Q 37.15625 30.375 30.078125 32.671875 
z
" id="ArialMT-36"/>
        <path d="M 4.15625 35.296875 
Q 4.15625 48 6.765625 55.734375 
Q 9.375 63.484375 14.515625 67.671875 
Q 19.671875 71.875 27.484375 71.875 
Q 33.25 71.875 37.59375 69.546875 
Q 41.9375 67.234375 44.765625 62.859375 
Q 47.609375 58.5 49.21875 52.21875 
Q 50.828125 45.953125 50.828125 35.296875 
Q 50.828125 22.703125 48.234375 14.96875 
Q 45.65625 7.234375 40.5 3 
Q 35.359375 -1.21875 27.484375 -1.21875 
Q 17.140625 -1.21875 11.234375 6.203125 
Q 4.15625 15.140625 4.15625 35.296875 
z
M 13.1875 35.296875 
Q 13.1875 17.671875 17.3125 11.828125 
Q 21.4375 6 27.484375 6 
Q 33.546875 6 37.671875 11.859375 
Q 41.796875 17.71875 41.796875 35.296875 
Q 41.796875 52.984375 37.671875 58.78125 
Q 33.546875 64.59375 27.390625 64.59375 
Q 21.34375 64.59375 17.71875 59.46875 
Q 13.1875 52.9375 13.1875 35.296875 
z
" id="ArialMT-48"/>
       </defs>
       <use xlink:href="#ArialMT-36"/>
       <use x="55.615234" xlink:href="#ArialMT-48"/>
      </g>
     </g>
    </g>
    <g id="xtick_2">
     <g id="line2d_2">
      <path clip-path="url(#p7c0c47f6be)" d="M 120.822956 516.019531 
L 120.822956 28.119531 
" style="fill:none;stroke:#ffffff;stroke-linecap:round;"/>
     </g>
     <g id="text_2">
      <!-- $100K -->
      <g style="fill:#262626;" transform="translate(100.944538 535.361523)scale(0.1375 -0.1375)">
       <defs>
        <path d="M 37.25 0 
L 28.46875 0 
L 28.46875 56 
Q 25.296875 52.984375 20.140625 49.953125 
Q 14.984375 46.921875 10.890625 45.40625 
L 10.890625 53.90625 
Q 18.265625 57.375 23.78125 62.296875 
Q 29.296875 67.234375 31.59375 71.875 
L 37.25 71.875 
z
" id="ArialMT-49"/>
        <path d="M 7.328125 0 
L 7.328125 71.578125 
L 16.796875 71.578125 
L 16.796875 36.078125 
L 52.34375 71.578125 
L 65.1875 71.578125 
L 35.15625 42.578125 
L 66.5 0 
L 54 0 
L 28.515625 36.234375 
L 16.796875 24.8125 
L 16.796875 0 
z
" id="ArialMT-75"/>
       </defs>
       <use xlink:href="#ArialMT-36"/>
       <use x="55.615234" xlink:href="#ArialMT-49"/>
       <use x="111.230469" xlink:href="#ArialMT-48"/>
       <use x="166.845703" xlink:href="#ArialMT-48"/>
       <use x="222.460938" xlink:href="#ArialMT-75"/>
      </g>
     </g>
    </g>
    <g id="xtick_3">
     <g id="line2d_3">
      <path clip-path="url(#p7c0c47f6be)" d="M 186.714467 516.019531 
L 186.714467 28.119531 
" style="fill:none;stroke:#ffffff;stroke-linecap:round;"/>
     </g>
     <g id="text_3">
      <!-- $200K -->
      <g style="fill:#262626;" transform="translate(166.836049 535.361523)scale(0.1375 -0.1375)">
       <defs>
        <path d="M 50.34375 8.453125 
L 50.34375 0 
L 3.03125 0 
Q 2.9375 3.171875 4.046875 6.109375 
Q 5.859375 10.9375 9.828125 15.625 
Q 13.8125 20.3125 21.34375 26.46875 
Q 33.015625 36.03125 37.109375 41.625 
Q 41.21875 47.21875 41.21875 52.203125 
Q 41.21875 57.421875 37.46875 61 
Q 33.734375 64.59375 27.734375 64.59375 
Q 21.390625 64.59375 17.578125 60.78125 
Q 13.765625 56.984375 13.71875 50.25 
L 4.6875 51.171875 
Q 5.609375 61.28125 11.65625 66.578125 
Q 17.71875 71.875 27.9375 71.875 
Q 38.234375 71.875 44.234375 66.15625 
Q 50.25 60.453125 50.25 52 
Q 50.25 47.703125 48.484375 43.546875 
Q 46.734375 39.40625 42.65625 34.8125 
Q 38.578125 30.21875 29.109375 22.21875 
Q 21.1875 15.578125 18.9375 13.203125 
Q 16.703125 10.84375 15.234375 8.453125 
z
" id="ArialMT-50"/>
       </defs>
       <use xlink:href="#ArialMT-36"/>
       <use x="55.615234" xlink:href="#ArialMT-50"/>
       <use x="111.230469" xlink:href="#ArialMT-48"/>
       <use x="166.845703" xlink:href="#ArialMT-48"/>
       <use x="222.460938" xlink:href="#ArialMT-75"/>
      </g>
     </g>
    </g>
    <g id="xtick_4">
     <g id="line2d_4">
      <path clip-path="url(#p7c0c47f6be)" d="M 252.605977 516.019531 
L 252.605977 28.119531 
" style="fill:none;stroke:#ffffff;stroke-linecap:round;"/>
     </g>
     <g id="text_4">
      <!-- $300K -->
      <g style="fill:#262626;" transform="translate(232.727559 535.361523)scale(0.1375 -0.1375)">
       <defs>
        <path d="M 4.203125 18.890625 
L 12.984375 20.0625 
Q 14.5 12.59375 18.140625 9.296875 
Q 21.78125 6 27 6 
Q 33.203125 6 37.46875 10.296875 
Q 41.75 14.59375 41.75 20.953125 
Q 41.75 27 37.796875 30.921875 
Q 33.84375 34.859375 27.734375 34.859375 
Q 25.25 34.859375 21.53125 33.890625 
L 22.515625 41.609375 
Q 23.390625 41.5 23.921875 41.5 
Q 29.546875 41.5 34.03125 44.421875 
Q 38.53125 47.359375 38.53125 53.46875 
Q 38.53125 58.296875 35.25 61.46875 
Q 31.984375 64.65625 26.8125 64.65625 
Q 21.6875 64.65625 18.265625 61.421875 
Q 14.84375 58.203125 13.875 51.765625 
L 5.078125 53.328125 
Q 6.6875 62.15625 12.390625 67.015625 
Q 18.109375 71.875 26.609375 71.875 
Q 32.46875 71.875 37.390625 69.359375 
Q 42.328125 66.84375 44.9375 62.5 
Q 47.5625 58.15625 47.5625 53.265625 
Q 47.5625 48.640625 45.0625 44.828125 
Q 42.578125 41.015625 37.703125 38.765625 
Q 44.046875 37.3125 47.5625 32.6875 
Q 51.078125 28.078125 51.078125 21.140625 
Q 51.078125 11.765625 44.234375 5.25 
Q 37.40625 -1.265625 26.953125 -1.265625 
Q 17.53125 -1.265625 11.296875 4.34375 
Q 5.078125 9.96875 4.203125 18.890625 
z
" id="ArialMT-51"/>
       </defs>
       <use xlink:href="#ArialMT-36"/>
       <use x="55.615234" xlink:href="#ArialMT-51"/>
       <use x="111.230469" xlink:href="#ArialMT-48"/>
       <use x="166.845703" xlink:href="#ArialMT-48"/>
       <use x="222.460938" xlink:href="#ArialMT-75"/>
      </g>
     </g>
    </g>
    <g id="xtick_5">
     <g id="line2d_5">
      <path clip-path="url(#p7c0c47f6be)" d="M 318.497488 516.019531 
L 318.497488 28.119531 
" style="fill:none;stroke:#ffffff;stroke-linecap:round;"/>
     </g>
     <g id="text_5">
      <!-- $400K -->
      <g style="fill:#262626;" transform="translate(298.61907 535.361523)scale(0.1375 -0.1375)">
       <defs>
        <path d="M 32.328125 0 
L 32.328125 17.140625 
L 1.265625 17.140625 
L 1.265625 25.203125 
L 33.9375 71.578125 
L 41.109375 71.578125 
L 41.109375 25.203125 
L 50.78125 25.203125 
L 50.78125 17.140625 
L 41.109375 17.140625 
L 41.109375 0 
z
M 32.328125 25.203125 
L 32.328125 57.46875 
L 9.90625 25.203125 
z
" id="ArialMT-52"/>
       </defs>
       <use xlink:href="#ArialMT-36"/>
       <use x="55.615234" xlink:href="#ArialMT-52"/>
       <use x="111.230469" xlink:href="#ArialMT-48"/>
       <use x="166.845703" xlink:href="#ArialMT-48"/>
       <use x="222.460938" xlink:href="#ArialMT-75"/>
      </g>
     </g>
    </g>
    <g id="text_6">
     <!-- Average Effect -->
     <g style="fill:#262626;" transform="translate(154.09082 559.013867)scale(0.15 -0.15)">
      <defs>
       <path d="M -0.140625 0 
L 27.34375 71.578125 
L 37.546875 71.578125 
L 66.84375 0 
L 56.0625 0 
L 47.703125 21.6875 
L 17.78125 21.6875 
L 9.90625 0 
z
M 20.515625 29.390625 
L 44.78125 29.390625 
L 37.3125 49.21875 
Q 33.890625 58.25 32.234375 64.0625 
Q 30.859375 57.171875 28.375 50.390625 
z
" id="ArialMT-65"/>
       <path d="M 21 0 
L 1.265625 51.859375 
L 10.546875 51.859375 
L 21.6875 20.796875 
Q 23.484375 15.765625 25 10.359375 
Q 26.171875 14.453125 28.265625 20.21875 
L 39.796875 51.859375 
L 48.828125 51.859375 
L 29.203125 0 
z
" id="ArialMT-118"/>
       <path d="M 42.09375 16.703125 
L 51.171875 15.578125 
Q 49.03125 7.625 43.21875 3.21875 
Q 37.40625 -1.171875 28.375 -1.171875 
Q 17 -1.171875 10.328125 5.828125 
Q 3.65625 12.84375 3.65625 25.484375 
Q 3.65625 38.578125 10.390625 45.796875 
Q 17.140625 53.03125 27.875 53.03125 
Q 38.28125 53.03125 44.875 45.953125 
Q 51.46875 38.875 51.46875 26.03125 
Q 51.46875 25.25 51.421875 23.6875 
L 12.75 23.6875 
Q 13.234375 15.140625 17.578125 10.59375 
Q 21.921875 6.0625 28.421875 6.0625 
Q 33.25 6.0625 36.671875 8.59375 
Q 40.09375 11.140625 42.09375 16.703125 
z
M 13.234375 30.90625 
L 42.1875 30.90625 
Q 41.609375 37.453125 38.875 40.71875 
Q 34.671875 45.796875 27.984375 45.796875 
Q 21.921875 45.796875 17.796875 41.75 
Q 13.671875 37.703125 13.234375 30.90625 
z
" id="ArialMT-101"/>
       <path d="M 6.5 0 
L 6.5 51.859375 
L 14.40625 51.859375 
L 14.40625 44 
Q 17.4375 49.515625 20 51.265625 
Q 22.5625 53.03125 25.640625 53.03125 
Q 30.078125 53.03125 34.671875 50.203125 
L 31.640625 42.046875 
Q 28.421875 43.953125 25.203125 43.953125 
Q 22.3125 43.953125 20.015625 42.21875 
Q 17.71875 40.484375 16.75 37.40625 
Q 15.28125 32.71875 15.28125 27.15625 
L 15.28125 0 
z
" id="ArialMT-114"/>
       <path d="M 40.4375 6.390625 
Q 35.546875 2.25 31.03125 0.53125 
Q 26.515625 -1.171875 21.34375 -1.171875 
Q 12.796875 -1.171875 8.203125 3 
Q 3.609375 7.171875 3.609375 13.671875 
Q 3.609375 17.484375 5.34375 20.625 
Q 7.078125 23.78125 9.890625 25.6875 
Q 12.703125 27.59375 16.21875 28.5625 
Q 18.796875 29.25 24.03125 29.890625 
Q 34.671875 31.15625 39.703125 32.90625 
Q 39.75 34.71875 39.75 35.203125 
Q 39.75 40.578125 37.25 42.78125 
Q 33.890625 45.75 27.25 45.75 
Q 21.046875 45.75 18.09375 43.578125 
Q 15.140625 41.40625 13.71875 35.890625 
L 5.125 37.0625 
Q 6.296875 42.578125 8.984375 45.96875 
Q 11.671875 49.359375 16.75 51.1875 
Q 21.828125 53.03125 28.515625 53.03125 
Q 35.15625 53.03125 39.296875 51.46875 
Q 43.453125 49.90625 45.40625 47.53125 
Q 47.359375 45.171875 48.140625 41.546875 
Q 48.578125 39.3125 48.578125 33.453125 
L 48.578125 21.734375 
Q 48.578125 9.46875 49.140625 6.21875 
Q 49.703125 2.984375 51.375 0 
L 42.1875 0 
Q 40.828125 2.734375 40.4375 6.390625 
z
M 39.703125 26.03125 
Q 34.90625 24.078125 25.34375 22.703125 
Q 19.921875 21.921875 17.671875 20.9375 
Q 15.4375 19.96875 14.203125 18.09375 
Q 12.984375 16.21875 12.984375 13.921875 
Q 12.984375 10.40625 15.640625 8.0625 
Q 18.3125 5.71875 23.4375 5.71875 
Q 28.515625 5.71875 32.46875 7.9375 
Q 36.421875 10.15625 38.28125 14.015625 
Q 39.703125 17 39.703125 22.796875 
z
" id="ArialMT-97"/>
       <path d="M 4.984375 -4.296875 
L 13.53125 -5.5625 
Q 14.0625 -9.515625 16.5 -11.328125 
Q 19.78125 -13.765625 25.4375 -13.765625 
Q 31.546875 -13.765625 34.859375 -11.328125 
Q 38.1875 -8.890625 39.359375 -4.5 
Q 40.046875 -1.8125 39.984375 6.78125 
Q 34.234375 0 25.640625 0 
Q 14.9375 0 9.078125 7.71875 
Q 3.21875 15.4375 3.21875 26.21875 
Q 3.21875 33.640625 5.90625 39.90625 
Q 8.59375 46.1875 13.6875 49.609375 
Q 18.796875 53.03125 25.6875 53.03125 
Q 34.859375 53.03125 40.828125 45.609375 
L 40.828125 51.859375 
L 48.921875 51.859375 
L 48.921875 7.03125 
Q 48.921875 -5.078125 46.453125 -10.125 
Q 44 -15.1875 38.640625 -18.109375 
Q 33.296875 -21.046875 25.484375 -21.046875 
Q 16.21875 -21.046875 10.5 -16.875 
Q 4.78125 -12.703125 4.984375 -4.296875 
z
M 12.25 26.859375 
Q 12.25 16.65625 16.296875 11.96875 
Q 20.359375 7.28125 26.46875 7.28125 
Q 32.515625 7.28125 36.609375 11.9375 
Q 40.71875 16.609375 40.71875 26.5625 
Q 40.71875 36.078125 36.5 40.90625 
Q 32.28125 45.75 26.3125 45.75 
Q 20.453125 45.75 16.34375 40.984375 
Q 12.25 36.234375 12.25 26.859375 
z
" id="ArialMT-103"/>
       <path id="ArialMT-32"/>
       <path d="M 7.90625 0 
L 7.90625 71.578125 
L 59.671875 71.578125 
L 59.671875 63.140625 
L 17.390625 63.140625 
L 17.390625 41.21875 
L 56.984375 41.21875 
L 56.984375 32.8125 
L 17.390625 32.8125 
L 17.390625 8.453125 
L 61.328125 8.453125 
L 61.328125 0 
z
" id="ArialMT-69"/>
       <path d="M 8.6875 0 
L 8.6875 45.015625 
L 0.921875 45.015625 
L 0.921875 51.859375 
L 8.6875 51.859375 
L 8.6875 57.375 
Q 8.6875 62.59375 9.625 65.140625 
Q 10.890625 68.5625 14.078125 70.671875 
Q 17.28125 72.796875 23.046875 72.796875 
Q 26.765625 72.796875 31.25 71.921875 
L 29.9375 64.265625 
Q 27.203125 64.75 24.75 64.75 
Q 20.75 64.75 19.09375 63.03125 
Q 17.4375 61.328125 17.4375 56.640625 
L 17.4375 51.859375 
L 27.546875 51.859375 
L 27.546875 45.015625 
L 17.4375 45.015625 
L 17.4375 0 
z
" id="ArialMT-102"/>
       <path d="M 40.4375 19 
L 49.078125 17.875 
Q 47.65625 8.9375 41.8125 3.875 
Q 35.984375 -1.171875 27.484375 -1.171875 
Q 16.84375 -1.171875 10.375 5.78125 
Q 3.90625 12.75 3.90625 25.734375 
Q 3.90625 34.125 6.6875 40.421875 
Q 9.46875 46.734375 15.15625 49.875 
Q 20.84375 53.03125 27.546875 53.03125 
Q 35.984375 53.03125 41.359375 48.75 
Q 46.734375 44.484375 48.25 36.625 
L 39.703125 35.296875 
Q 38.484375 40.53125 35.375 43.15625 
Q 32.28125 45.796875 27.875 45.796875 
Q 21.234375 45.796875 17.078125 41.03125 
Q 12.9375 36.28125 12.9375 25.984375 
Q 12.9375 15.53125 16.9375 10.796875 
Q 20.953125 6.0625 27.390625 6.0625 
Q 32.5625 6.0625 36.03125 9.234375 
Q 39.5 12.40625 40.4375 19 
z
" id="ArialMT-99"/>
       <path d="M 25.78125 7.859375 
L 27.046875 0.09375 
Q 23.34375 -0.6875 20.40625 -0.6875 
Q 15.625 -0.6875 12.984375 0.828125 
Q 10.359375 2.34375 9.28125 4.8125 
Q 8.203125 7.28125 8.203125 15.1875 
L 8.203125 45.015625 
L 1.765625 45.015625 
L 1.765625 51.859375 
L 8.203125 51.859375 
L 8.203125 64.703125 
L 16.9375 69.96875 
L 16.9375 51.859375 
L 25.78125 51.859375 
L 25.78125 45.015625 
L 16.9375 45.015625 
L 16.9375 14.703125 
Q 16.9375 10.9375 17.40625 9.859375 
Q 17.875 8.796875 18.921875 8.15625 
Q 19.96875 7.515625 21.921875 7.515625 
Q 23.390625 7.515625 25.78125 7.859375 
z
" id="ArialMT-116"/>
      </defs>
      <use xlink:href="#ArialMT-65"/>
      <use x="64.949219" xlink:href="#ArialMT-118"/>
      <use x="114.949219" xlink:href="#ArialMT-101"/>
      <use x="170.564453" xlink:href="#ArialMT-114"/>
      <use x="203.865234" xlink:href="#ArialMT-97"/>
      <use x="259.480469" xlink:href="#ArialMT-103"/>
      <use x="315.095703" xlink:href="#ArialMT-101"/>
      <use x="370.710938" xlink:href="#ArialMT-32"/>
      <use x="398.494141" xlink:href="#ArialMT-69"/>
      <use x="465.193359" xlink:href="#ArialMT-102"/>
      <use x="491.226562" xlink:href="#ArialMT-102"/>
      <use x="519.009766" xlink:href="#ArialMT-101"/>
      <use x="574.625" xlink:href="#ArialMT-99"/>
      <use x="624.625" xlink:href="#ArialMT-116"/>
     </g>
    </g>
   </g>
   <g id="matplotlib.axis_2">
    <g id="ytick_1">
     <g id="text_7">
      <!-- 98004 -->
      <g style="fill:#262626;" transform="translate(7.2 45.238027)scale(0.1375 -0.1375)">
       <defs>
        <path d="M 5.46875 16.546875 
L 13.921875 17.328125 
Q 14.984375 11.375 18.015625 8.6875 
Q 21.046875 6 25.78125 6 
Q 29.828125 6 32.875 7.859375 
Q 35.9375 9.71875 37.890625 12.8125 
Q 39.84375 15.921875 41.15625 21.1875 
Q 42.484375 26.46875 42.484375 31.9375 
Q 42.484375 32.515625 42.4375 33.6875 
Q 39.796875 29.5 35.234375 26.875 
Q 30.671875 24.265625 25.34375 24.265625 
Q 16.453125 24.265625 10.296875 30.703125 
Q 4.15625 37.15625 4.15625 47.703125 
Q 4.15625 58.59375 10.578125 65.234375 
Q 17 71.875 26.65625 71.875 
Q 33.640625 71.875 39.421875 68.109375 
Q 45.21875 64.359375 48.21875 57.390625 
Q 51.21875 50.4375 51.21875 37.25 
Q 51.21875 23.53125 48.234375 15.40625 
Q 45.265625 7.28125 39.375 3.03125 
Q 33.5 -1.21875 25.59375 -1.21875 
Q 17.1875 -1.21875 11.859375 3.4375 
Q 6.546875 8.109375 5.46875 16.546875 
z
M 41.453125 48.140625 
Q 41.453125 55.71875 37.421875 60.15625 
Q 33.40625 64.59375 27.734375 64.59375 
Q 21.875 64.59375 17.53125 59.8125 
Q 13.1875 55.03125 13.1875 47.40625 
Q 13.1875 40.578125 17.3125 36.296875 
Q 21.4375 32.03125 27.484375 32.03125 
Q 33.59375 32.03125 37.515625 36.296875 
Q 41.453125 40.578125 41.453125 48.140625 
z
" id="ArialMT-57"/>
        <path d="M 17.671875 38.8125 
Q 12.203125 40.828125 9.5625 44.53125 
Q 6.9375 48.25 6.9375 53.421875 
Q 6.9375 61.234375 12.546875 66.546875 
Q 18.171875 71.875 27.484375 71.875 
Q 36.859375 71.875 42.578125 66.421875 
Q 48.296875 60.984375 48.296875 53.171875 
Q 48.296875 48.1875 45.671875 44.5 
Q 43.0625 40.828125 37.75 38.8125 
Q 44.34375 36.671875 47.78125 31.875 
Q 51.21875 27.09375 51.21875 20.453125 
Q 51.21875 11.28125 44.71875 5.03125 
Q 38.234375 -1.21875 27.640625 -1.21875 
Q 17.046875 -1.21875 10.546875 5.046875 
Q 4.046875 11.328125 4.046875 20.703125 
Q 4.046875 27.6875 7.59375 32.390625 
Q 11.140625 37.109375 17.671875 38.8125 
z
M 15.921875 53.71875 
Q 15.921875 48.640625 19.1875 45.40625 
Q 22.46875 42.1875 27.6875 42.1875 
Q 32.765625 42.1875 36.015625 45.375 
Q 39.265625 48.578125 39.265625 53.21875 
Q 39.265625 58.0625 35.90625 61.359375 
Q 32.5625 64.65625 27.59375 64.65625 
Q 22.5625 64.65625 19.234375 61.421875 
Q 15.921875 58.203125 15.921875 53.71875 
z
M 13.09375 20.65625 
Q 13.09375 16.890625 14.875 13.375 
Q 16.65625 9.859375 20.171875 7.921875 
Q 23.6875 6 27.734375 6 
Q 34.03125 6 38.125 10.046875 
Q 42.234375 14.109375 42.234375 20.359375 
Q 42.234375 26.703125 38.015625 30.859375 
Q 33.796875 35.015625 27.4375 35.015625 
Q 21.234375 35.015625 17.15625 30.90625 
Q 13.09375 26.8125 13.09375 20.65625 
z
" id="ArialMT-56"/>
       </defs>
       <use xlink:href="#ArialMT-57"/>
       <use x="55.615234" xlink:href="#ArialMT-56"/>
       <use x="111.230469" xlink:href="#ArialMT-48"/>
       <use x="166.845703" xlink:href="#ArialMT-48"/>
       <use x="222.460938" xlink:href="#ArialMT-52"/>
      </g>
     </g>
    </g>
    <g id="ytick_2">
     <g id="text_8">
      <!-- 98109 -->
      <g style="fill:#262626;" transform="translate(7.2 69.633027)scale(0.1375 -0.1375)">
       <use xlink:href="#ArialMT-57"/>
       <use x="55.615234" xlink:href="#ArialMT-56"/>
       <use x="111.230469" xlink:href="#ArialMT-49"/>
       <use x="166.845703" xlink:href="#ArialMT-48"/>
       <use x="222.460938" xlink:href="#ArialMT-57"/>
      </g>
     </g>
    </g>
    <g id="ytick_3">
     <g id="text_9">
      <!-- 98112 -->
      <g style="fill:#262626;" transform="translate(8.214062 94.028027)scale(0.1375 -0.1375)">
       <use xlink:href="#ArialMT-57"/>
       <use x="55.615234" xlink:href="#ArialMT-56"/>
       <use x="111.230469" xlink:href="#ArialMT-49"/>
       <use x="159.470703" xlink:href="#ArialMT-49"/>
       <use x="215.085938" xlink:href="#ArialMT-50"/>
      </g>
     </g>
    </g>
    <g id="ytick_4">
     <g id="text_10">
      <!-- 98119 -->
      <g style="fill:#262626;" transform="translate(8.214062 118.423027)scale(0.1375 -0.1375)">
       <use xlink:href="#ArialMT-57"/>
       <use x="55.615234" xlink:href="#ArialMT-56"/>
       <use x="111.230469" xlink:href="#ArialMT-49"/>
       <use x="159.470703" xlink:href="#ArialMT-49"/>
       <use x="215.085938" xlink:href="#ArialMT-57"/>
      </g>
     </g>
    </g>
    <g id="ytick_5">
     <g id="text_11">
      <!-- 98102 -->
      <g style="fill:#262626;" transform="translate(7.2 142.818027)scale(0.1375 -0.1375)">
       <use xlink:href="#ArialMT-57"/>
       <use x="55.615234" xlink:href="#ArialMT-56"/>
       <use x="111.230469" xlink:href="#ArialMT-49"/>
       <use x="166.845703" xlink:href="#ArialMT-48"/>
       <use x="222.460938" xlink:href="#ArialMT-50"/>
      </g>
     </g>
    </g>
    <g id="ytick_6">
     <g id="text_12">
      <!-- 98105 -->
      <g style="fill:#262626;" transform="translate(7.2 167.213027)scale(0.1375 -0.1375)">
       <defs>
        <path d="M 4.15625 18.75 
L 13.375 19.53125 
Q 14.40625 12.796875 18.140625 9.390625 
Q 21.875 6 27.15625 6 
Q 33.5 6 37.890625 10.78125 
Q 42.28125 15.578125 42.28125 23.484375 
Q 42.28125 31 38.0625 35.34375 
Q 33.84375 39.703125 27 39.703125 
Q 22.75 39.703125 19.328125 37.765625 
Q 15.921875 35.84375 13.96875 32.765625 
L 5.71875 33.84375 
L 12.640625 70.609375 
L 48.25 70.609375 
L 48.25 62.203125 
L 19.671875 62.203125 
L 15.828125 42.96875 
Q 22.265625 47.46875 29.34375 47.46875 
Q 38.71875 47.46875 45.15625 40.96875 
Q 51.609375 34.46875 51.609375 24.265625 
Q 51.609375 14.546875 45.953125 7.46875 
Q 39.0625 -1.21875 27.15625 -1.21875 
Q 17.390625 -1.21875 11.203125 4.25 
Q 5.03125 9.71875 4.15625 18.75 
z
" id="ArialMT-53"/>
       </defs>
       <use xlink:href="#ArialMT-57"/>
       <use x="55.615234" xlink:href="#ArialMT-56"/>
       <use x="111.230469" xlink:href="#ArialMT-49"/>
       <use x="166.845703" xlink:href="#ArialMT-48"/>
       <use x="222.460938" xlink:href="#ArialMT-53"/>
      </g>
     </g>
    </g>
    <g id="ytick_7">
     <g id="text_13">
      <!-- 98040 -->
      <g style="fill:#262626;" transform="translate(7.2 191.608027)scale(0.1375 -0.1375)">
       <use xlink:href="#ArialMT-57"/>
       <use x="55.615234" xlink:href="#ArialMT-56"/>
       <use x="111.230469" xlink:href="#ArialMT-48"/>
       <use x="166.845703" xlink:href="#ArialMT-52"/>
       <use x="222.460938" xlink:href="#ArialMT-48"/>
      </g>
     </g>
    </g>
    <g id="ytick_8">
     <g id="text_14">
      <!-- 98039 -->
      <g style="fill:#262626;" transform="translate(7.2 216.003027)scale(0.1375 -0.1375)">
       <use xlink:href="#ArialMT-57"/>
       <use x="55.615234" xlink:href="#ArialMT-56"/>
       <use x="111.230469" xlink:href="#ArialMT-48"/>
       <use x="166.845703" xlink:href="#ArialMT-51"/>
       <use x="222.460938" xlink:href="#ArialMT-57"/>
      </g>
     </g>
    </g>
    <g id="ytick_9">
     <g id="text_15">
      <!-- 98005 -->
      <g style="fill:#262626;" transform="translate(7.2 240.398027)scale(0.1375 -0.1375)">
       <use xlink:href="#ArialMT-57"/>
       <use x="55.615234" xlink:href="#ArialMT-56"/>
       <use x="111.230469" xlink:href="#ArialMT-48"/>
       <use x="166.845703" xlink:href="#ArialMT-48"/>
       <use x="222.460938" xlink:href="#ArialMT-53"/>
      </g>
     </g>
    </g>
    <g id="ytick_10">
     <g id="text_16">
      <!-- 98199 -->
      <g style="fill:#262626;" transform="translate(7.2 264.793027)scale(0.1375 -0.1375)">
       <use xlink:href="#ArialMT-57"/>
       <use x="55.615234" xlink:href="#ArialMT-56"/>
       <use x="111.230469" xlink:href="#ArialMT-49"/>
       <use x="166.845703" xlink:href="#ArialMT-57"/>
       <use x="222.460938" xlink:href="#ArialMT-57"/>
      </g>
     </g>
    </g>
    <g id="ytick_11">
     <g id="text_17">
      <!-- 98033 -->
      <g style="fill:#262626;" transform="translate(7.2 289.188027)scale(0.1375 -0.1375)">
       <use xlink:href="#ArialMT-57"/>
       <use x="55.615234" xlink:href="#ArialMT-56"/>
       <use x="111.230469" xlink:href="#ArialMT-48"/>
       <use x="166.845703" xlink:href="#ArialMT-51"/>
       <use x="222.460938" xlink:href="#ArialMT-51"/>
      </g>
     </g>
    </g>
    <g id="ytick_12">
     <g id="text_18">
      <!-- 98115 -->
      <g style="fill:#262626;" transform="translate(8.214062 313.583027)scale(0.1375 -0.1375)">
       <use xlink:href="#ArialMT-57"/>
       <use x="55.615234" xlink:href="#ArialMT-56"/>
       <use x="111.230469" xlink:href="#ArialMT-49"/>
       <use x="159.470703" xlink:href="#ArialMT-49"/>
       <use x="215.085938" xlink:href="#ArialMT-53"/>
      </g>
     </g>
    </g>
    <g id="ytick_13">
     <g id="text_19">
      <!-- 98103 -->
      <g style="fill:#262626;" transform="translate(7.2 337.978027)scale(0.1375 -0.1375)">
       <use xlink:href="#ArialMT-57"/>
       <use x="55.615234" xlink:href="#ArialMT-56"/>
       <use x="111.230469" xlink:href="#ArialMT-49"/>
       <use x="166.845703" xlink:href="#ArialMT-48"/>
       <use x="222.460938" xlink:href="#ArialMT-51"/>
      </g>
     </g>
    </g>
    <g id="ytick_14">
     <g id="text_20">
      <!-- 98107 -->
      <g style="fill:#262626;" transform="translate(7.2 362.373027)scale(0.1375 -0.1375)">
       <defs>
        <path d="M 4.734375 62.203125 
L 4.734375 70.65625 
L 51.078125 70.65625 
L 51.078125 63.8125 
Q 44.234375 56.546875 37.515625 44.484375 
Q 30.8125 32.421875 27.15625 19.671875 
Q 24.515625 10.6875 23.78125 0 
L 14.75 0 
Q 14.890625 8.453125 18.0625 20.40625 
Q 21.234375 32.375 27.171875 43.484375 
Q 33.109375 54.59375 39.796875 62.203125 
z
" id="ArialMT-55"/>
       </defs>
       <use xlink:href="#ArialMT-57"/>
       <use x="55.615234" xlink:href="#ArialMT-56"/>
       <use x="111.230469" xlink:href="#ArialMT-49"/>
       <use x="166.845703" xlink:href="#ArialMT-48"/>
       <use x="222.460938" xlink:href="#ArialMT-55"/>
      </g>
     </g>
    </g>
    <g id="ytick_15">
     <g id="text_21">
      <!-- 98117 -->
      <g style="fill:#262626;" transform="translate(8.214062 386.768027)scale(0.1375 -0.1375)">
       <use xlink:href="#ArialMT-57"/>
       <use x="55.615234" xlink:href="#ArialMT-56"/>
       <use x="111.230469" xlink:href="#ArialMT-49"/>
       <use x="159.470703" xlink:href="#ArialMT-49"/>
       <use x="215.085938" xlink:href="#ArialMT-55"/>
      </g>
     </g>
    </g>
    <g id="ytick_16">
     <g id="text_22">
      <!-- 98122 -->
      <g style="fill:#262626;" transform="translate(7.2 411.163027)scale(0.1375 -0.1375)">
       <use xlink:href="#ArialMT-57"/>
       <use x="55.615234" xlink:href="#ArialMT-56"/>
       <use x="111.230469" xlink:href="#ArialMT-49"/>
       <use x="166.845703" xlink:href="#ArialMT-50"/>
       <use x="222.460938" xlink:href="#ArialMT-50"/>
      </g>
     </g>
    </g>
    <g id="ytick_17">
     <g id="text_23">
      <!-- 98116 -->
      <g style="fill:#262626;" transform="translate(8.214062 435.558027)scale(0.1375 -0.1375)">
       <defs>
        <path d="M 49.75 54.046875 
L 41.015625 53.375 
Q 39.84375 58.546875 37.703125 60.890625 
Q 34.125 64.65625 28.90625 64.65625 
Q 24.703125 64.65625 21.53125 62.3125 
Q 17.390625 59.28125 14.984375 53.46875 
Q 12.59375 47.65625 12.5 36.921875 
Q 15.671875 41.75 20.265625 44.09375 
Q 24.859375 46.4375 29.890625 46.4375 
Q 38.671875 46.4375 44.84375 39.96875 
Q 51.03125 33.5 51.03125 23.25 
Q 51.03125 16.5 48.125 10.71875 
Q 45.21875 4.9375 40.140625 1.859375 
Q 35.0625 -1.21875 28.609375 -1.21875 
Q 17.625 -1.21875 10.6875 6.859375 
Q 3.765625 14.9375 3.765625 33.5 
Q 3.765625 54.25 11.421875 63.671875 
Q 18.109375 71.875 29.4375 71.875 
Q 37.890625 71.875 43.28125 67.140625 
Q 48.6875 62.40625 49.75 54.046875 
z
M 13.875 23.1875 
Q 13.875 18.65625 15.796875 14.5 
Q 17.71875 10.359375 21.1875 8.171875 
Q 24.65625 6 28.46875 6 
Q 34.03125 6 38.03125 10.484375 
Q 42.046875 14.984375 42.046875 22.703125 
Q 42.046875 30.125 38.078125 34.390625 
Q 34.125 38.671875 28.125 38.671875 
Q 22.171875 38.671875 18.015625 34.390625 
Q 13.875 30.125 13.875 23.1875 
z
" id="ArialMT-54"/>
       </defs>
       <use xlink:href="#ArialMT-57"/>
       <use x="55.615234" xlink:href="#ArialMT-56"/>
       <use x="111.230469" xlink:href="#ArialMT-49"/>
       <use x="159.470703" xlink:href="#ArialMT-49"/>
       <use x="215.085938" xlink:href="#ArialMT-54"/>
      </g>
     </g>
    </g>
    <g id="ytick_18">
     <g id="text_24">
      <!-- 98006 -->
      <g style="fill:#262626;" transform="translate(7.2 459.953027)scale(0.1375 -0.1375)">
       <use xlink:href="#ArialMT-57"/>
       <use x="55.615234" xlink:href="#ArialMT-56"/>
       <use x="111.230469" xlink:href="#ArialMT-48"/>
       <use x="166.845703" xlink:href="#ArialMT-48"/>
       <use x="222.460938" xlink:href="#ArialMT-54"/>
      </g>
     </g>
    </g>
    <g id="ytick_19">
     <g id="text_25">
      <!-- 98007 -->
      <g style="fill:#262626;" transform="translate(7.2 484.348027)scale(0.1375 -0.1375)">
       <use xlink:href="#ArialMT-57"/>
       <use x="55.615234" xlink:href="#ArialMT-56"/>
       <use x="111.230469" xlink:href="#ArialMT-48"/>
       <use x="166.845703" xlink:href="#ArialMT-48"/>
       <use x="222.460938" xlink:href="#ArialMT-55"/>
      </g>
     </g>
    </g>
    <g id="ytick_20">
     <g id="text_26">
      <!-- 98052 -->
      <g style="fill:#262626;" transform="translate(7.2 508.743027)scale(0.1375 -0.1375)">
       <use xlink:href="#ArialMT-57"/>
       <use x="55.615234" xlink:href="#ArialMT-56"/>
       <use x="111.230469" xlink:href="#ArialMT-48"/>
       <use x="166.845703" xlink:href="#ArialMT-53"/>
       <use x="222.460938" xlink:href="#ArialMT-50"/>
      </g>
     </g>
    </g>
   </g>
   <g id="patch_3">
    <path clip-path="url(#p7c0c47f6be)" d="M 54.931445 30.559031 
L 337.002874 30.559031 
L 337.002874 50.075031 
L 54.931445 50.075031 
z
" style="fill:#75acbc;stroke:#ffffff;stroke-linejoin:miter;"/>
   </g>
   <g id="patch_4">
    <path clip-path="url(#p7c0c47f6be)" d="M 54.931445 54.954031 
L 324.012659 54.954031 
L 324.012659 74.470031 
L 54.931445 74.470031 
z
" style="fill:#8c8c8c;stroke:#ffffff;stroke-linejoin:miter;"/>
   </g>
   <g id="patch_5">
    <path clip-path="url(#p7c0c47f6be)" d="M 54.931445 79.349031 
L 323.778709 79.349031 
L 323.778709 98.865031 
L 54.931445 98.865031 
z
" style="fill:#629b6f;stroke:#ffffff;stroke-linejoin:miter;"/>
   </g>
   <g id="patch_6">
    <path clip-path="url(#p7c0c47f6be)" d="M 54.931445 103.744031 
L 314.357725 103.744031 
L 314.357725 123.260031 
L 54.931445 123.260031 
z
" style="fill:#c68a69;stroke:#ffffff;stroke-linejoin:miter;"/>
   </g>
   <g id="patch_7">
    <path clip-path="url(#p7c0c47f6be)" d="M 54.931445 128.139031 
L 310.283529 128.139031 
L 310.283529 147.655031 
L 54.931445 147.655031 
z
" style="fill:#75acbc;stroke:#ffffff;stroke-linejoin:miter;"/>
   </g>
   <g id="patch_8">
    <path clip-path="url(#p7c0c47f6be)" d="M 54.931445 152.534031 
L 305.805516 152.534031 
L 305.805516 172.050031 
L 54.931445 172.050031 
z
" style="fill:#b16164;stroke:#ffffff;stroke-linejoin:miter;"/>
   </g>
   <g id="patch_9">
    <path clip-path="url(#p7c0c47f6be)" d="M 54.931445 176.929031 
L 301.403538 176.929031 
L 301.403538 196.445031 
L 54.931445 196.445031 
z
" style="fill:#beb182;stroke:#ffffff;stroke-linejoin:miter;"/>
   </g>
   <g id="patch_10">
    <path clip-path="url(#p7c0c47f6be)" d="M 54.931445 201.324031 
L 297.88576 201.324031 
L 297.88576 220.840031 
L 54.931445 220.840031 
z
" style="fill:#75acbc;stroke:#ffffff;stroke-linejoin:miter;"/>
   </g>
   <g id="patch_11">
    <path clip-path="url(#p7c0c47f6be)" d="M 54.931445 225.719031 
L 290.535032 225.719031 
L 290.535032 245.235031 
L 54.931445 245.235031 
z
" style="fill:#5c76a0;stroke:#ffffff;stroke-linejoin:miter;"/>
   </g>
   <g id="patch_12">
    <path clip-path="url(#p7c0c47f6be)" d="M 54.931445 250.114031 
L 286.427093 250.114031 
L 286.427093 269.630031 
L 54.931445 269.630031 
z
" style="fill:#cd98be;stroke:#ffffff;stroke-linejoin:miter;"/>
   </g>
   <g id="patch_13">
    <path clip-path="url(#p7c0c47f6be)" d="M 54.931445 274.509031 
L 268.843643 274.509031 
L 268.843643 294.025031 
L 54.931445 294.025031 
z
" style="fill:#75acbc;stroke:#ffffff;stroke-linejoin:miter;"/>
   </g>
   <g id="patch_14">
    <path clip-path="url(#p7c0c47f6be)" d="M 54.931445 298.904031 
L 267.649573 298.904031 
L 267.649573 318.420031 
L 54.931445 318.420031 
z
" style="fill:#c68a69;stroke:#ffffff;stroke-linejoin:miter;"/>
   </g>
   <g id="patch_15">
    <path clip-path="url(#p7c0c47f6be)" d="M 54.931445 323.299031 
L 266.990293 323.299031 
L 266.990293 342.815031 
L 54.931445 342.815031 
z
" style="fill:#8b7868;stroke:#ffffff;stroke-linejoin:miter;"/>
   </g>
   <g id="patch_16">
    <path clip-path="url(#p7c0c47f6be)" d="M 54.931445 347.694031 
L 263.244957 347.694031 
L 263.244957 367.210031 
L 54.931445 367.210031 
z
" style="fill:#629b6f;stroke:#ffffff;stroke-linejoin:miter;"/>
   </g>
   <g id="patch_17">
    <path clip-path="url(#p7c0c47f6be)" d="M 54.931445 372.089031 
L 260.76851 372.089031 
L 260.76851 391.605031 
L 54.931445 391.605031 
z
" style="fill:#8b7868;stroke:#ffffff;stroke-linejoin:miter;"/>
   </g>
   <g id="patch_18">
    <path clip-path="url(#p7c0c47f6be)" d="M 54.931445 396.484031 
L 258.20012 396.484031 
L 258.20012 416.000031 
L 54.931445 416.000031 
z
" style="fill:#8c8c8c;stroke:#ffffff;stroke-linejoin:miter;"/>
   </g>
   <g id="patch_19">
    <path clip-path="url(#p7c0c47f6be)" d="M 54.931445 420.879031 
L 246.520732 420.879031 
L 246.520732 440.395031 
L 54.931445 440.395031 
z
" style="fill:#b16164;stroke:#ffffff;stroke-linejoin:miter;"/>
   </g>
   <g id="patch_20">
    <path clip-path="url(#p7c0c47f6be)" d="M 54.931445 445.274031 
L 241.000149 445.274031 
L 241.000149 464.790031 
L 54.931445 464.790031 
z
" style="fill:#cd98be;stroke:#ffffff;stroke-linejoin:miter;"/>
   </g>
   <g id="patch_21">
    <path clip-path="url(#p7c0c47f6be)" d="M 54.931445 469.669031 
L 233.67147 469.669031 
L 233.67147 489.185031 
L 54.931445 489.185031 
z
" style="fill:#5c76a0;stroke:#ffffff;stroke-linejoin:miter;"/>
   </g>
   <g id="patch_22">
    <path clip-path="url(#p7c0c47f6be)" d="M 54.931445 494.064031 
L 229.571422 494.064031 
L 229.571422 513.580031 
L 54.931445 513.580031 
z
" style="fill:#b16164;stroke:#ffffff;stroke-linejoin:miter;"/>
   </g>
   <g id="line2d_6">
    <path clip-path="url(#p7c0c47f6be)" style="fill:none;stroke:#424242;stroke-linecap:round;stroke-width:2.7;"/>
   </g>
   <g id="line2d_7">
    <path clip-path="url(#p7c0c47f6be)" style="fill:none;stroke:#424242;stroke-linecap:round;stroke-width:2.7;"/>
   </g>
   <g id="line2d_8">
    <path clip-path="url(#p7c0c47f6be)" style="fill:none;stroke:#424242;stroke-linecap:round;stroke-width:2.7;"/>
   </g>
   <g id="line2d_9">
    <path clip-path="url(#p7c0c47f6be)" style="fill:none;stroke:#424242;stroke-linecap:round;stroke-width:2.7;"/>
   </g>
   <g id="line2d_10">
    <path clip-path="url(#p7c0c47f6be)" style="fill:none;stroke:#424242;stroke-linecap:round;stroke-width:2.7;"/>
   </g>
   <g id="line2d_11">
    <path clip-path="url(#p7c0c47f6be)" style="fill:none;stroke:#424242;stroke-linecap:round;stroke-width:2.7;"/>
   </g>
   <g id="line2d_12">
    <path clip-path="url(#p7c0c47f6be)" style="fill:none;stroke:#424242;stroke-linecap:round;stroke-width:2.7;"/>
   </g>
   <g id="line2d_13">
    <path clip-path="url(#p7c0c47f6be)" style="fill:none;stroke:#424242;stroke-linecap:round;stroke-width:2.7;"/>
   </g>
   <g id="line2d_14">
    <path clip-path="url(#p7c0c47f6be)" style="fill:none;stroke:#424242;stroke-linecap:round;stroke-width:2.7;"/>
   </g>
   <g id="line2d_15">
    <path clip-path="url(#p7c0c47f6be)" style="fill:none;stroke:#424242;stroke-linecap:round;stroke-width:2.7;"/>
   </g>
   <g id="line2d_16">
    <path clip-path="url(#p7c0c47f6be)" style="fill:none;stroke:#424242;stroke-linecap:round;stroke-width:2.7;"/>
   </g>
   <g id="line2d_17">
    <path clip-path="url(#p7c0c47f6be)" style="fill:none;stroke:#424242;stroke-linecap:round;stroke-width:2.7;"/>
   </g>
   <g id="line2d_18">
    <path clip-path="url(#p7c0c47f6be)" style="fill:none;stroke:#424242;stroke-linecap:round;stroke-width:2.7;"/>
   </g>
   <g id="line2d_19">
    <path clip-path="url(#p7c0c47f6be)" style="fill:none;stroke:#424242;stroke-linecap:round;stroke-width:2.7;"/>
   </g>
   <g id="line2d_20">
    <path clip-path="url(#p7c0c47f6be)" style="fill:none;stroke:#424242;stroke-linecap:round;stroke-width:2.7;"/>
   </g>
   <g id="line2d_21">
    <path clip-path="url(#p7c0c47f6be)" style="fill:none;stroke:#424242;stroke-linecap:round;stroke-width:2.7;"/>
   </g>
   <g id="line2d_22">
    <path clip-path="url(#p7c0c47f6be)" style="fill:none;stroke:#424242;stroke-linecap:round;stroke-width:2.7;"/>
   </g>
   <g id="line2d_23">
    <path clip-path="url(#p7c0c47f6be)" style="fill:none;stroke:#424242;stroke-linecap:round;stroke-width:2.7;"/>
   </g>
   <g id="line2d_24">
    <path clip-path="url(#p7c0c47f6be)" style="fill:none;stroke:#424242;stroke-linecap:round;stroke-width:2.7;"/>
   </g>
   <g id="line2d_25">
    <path clip-path="url(#p7c0c47f6be)" style="fill:none;stroke:#424242;stroke-linecap:round;stroke-width:2.7;"/>
   </g>
   <g id="patch_23">
    <path d="M 54.931445 516.019531 
L 54.931445 28.119531 
" style="fill:none;stroke:#ffffff;stroke-linecap:square;stroke-linejoin:miter;stroke-width:1.25;"/>
   </g>
   <g id="patch_24">
    <path d="M 351.106445 516.019531 
L 351.106445 28.119531 
" style="fill:none;stroke:#ffffff;stroke-linecap:square;stroke-linejoin:miter;stroke-width:1.25;"/>
   </g>
   <g id="patch_25">
    <path d="M 54.931445 516.019531 
L 351.106445 516.019531 
" style="fill:none;stroke:#ffffff;stroke-linecap:square;stroke-linejoin:miter;stroke-width:1.25;"/>
   </g>
   <g id="patch_26">
    <path d="M 54.931445 28.119531 
L 351.106445 28.119531 
" style="fill:none;stroke:#ffffff;stroke-linecap:square;stroke-linejoin:miter;stroke-width:1.25;"/>
   </g>
   <g id="text_27">
    <!-- Average Effect of Zipcode on Price -->
    <g style="fill:#262626;" transform="translate(87.393555 18.119531)scale(0.15 -0.15)">
     <defs>
      <path d="M 3.328125 25.921875 
Q 3.328125 40.328125 11.328125 47.265625 
Q 18.015625 53.03125 27.640625 53.03125 
Q 38.328125 53.03125 45.109375 46.015625 
Q 51.90625 39.015625 51.90625 26.65625 
Q 51.90625 16.65625 48.90625 10.90625 
Q 45.90625 5.171875 40.15625 2 
Q 34.421875 -1.171875 27.640625 -1.171875 
Q 16.75 -1.171875 10.03125 5.8125 
Q 3.328125 12.796875 3.328125 25.921875 
z
M 12.359375 25.921875 
Q 12.359375 15.96875 16.703125 11.015625 
Q 21.046875 6.0625 27.640625 6.0625 
Q 34.1875 6.0625 38.53125 11.03125 
Q 42.875 16.015625 42.875 26.21875 
Q 42.875 35.84375 38.5 40.796875 
Q 34.125 45.75 27.640625 45.75 
Q 21.046875 45.75 16.703125 40.8125 
Q 12.359375 35.890625 12.359375 25.921875 
z
" id="ArialMT-111"/>
      <path d="M 2 0 
L 2 8.796875 
L 38.671875 54.640625 
Q 42.578125 59.515625 46.09375 63.140625 
L 6.15625 63.140625 
L 6.15625 71.578125 
L 57.421875 71.578125 
L 57.421875 63.140625 
L 17.234375 13.484375 
L 12.890625 8.453125 
L 58.59375 8.453125 
L 58.59375 0 
z
" id="ArialMT-90"/>
      <path d="M 6.640625 61.46875 
L 6.640625 71.578125 
L 15.4375 71.578125 
L 15.4375 61.46875 
z
M 6.640625 0 
L 6.640625 51.859375 
L 15.4375 51.859375 
L 15.4375 0 
z
" id="ArialMT-105"/>
      <path d="M 6.59375 -19.875 
L 6.59375 51.859375 
L 14.59375 51.859375 
L 14.59375 45.125 
Q 17.4375 49.078125 21 51.046875 
Q 24.5625 53.03125 29.640625 53.03125 
Q 36.28125 53.03125 41.359375 49.609375 
Q 46.4375 46.1875 49.015625 39.953125 
Q 51.609375 33.734375 51.609375 26.3125 
Q 51.609375 18.359375 48.75 11.984375 
Q 45.90625 5.609375 40.453125 2.21875 
Q 35.015625 -1.171875 29 -1.171875 
Q 24.609375 -1.171875 21.109375 0.6875 
Q 17.625 2.546875 15.375 5.375 
L 15.375 -19.875 
z
M 14.546875 25.640625 
Q 14.546875 15.625 18.59375 10.84375 
Q 22.65625 6.0625 28.421875 6.0625 
Q 34.28125 6.0625 38.453125 11.015625 
Q 42.625 15.96875 42.625 26.375 
Q 42.625 36.28125 38.546875 41.203125 
Q 34.46875 46.140625 28.8125 46.140625 
Q 23.1875 46.140625 18.859375 40.890625 
Q 14.546875 35.640625 14.546875 25.640625 
z
" id="ArialMT-112"/>
      <path d="M 40.234375 0 
L 40.234375 6.546875 
Q 35.296875 -1.171875 25.734375 -1.171875 
Q 19.53125 -1.171875 14.328125 2.25 
Q 9.125 5.671875 6.265625 11.796875 
Q 3.421875 17.921875 3.421875 25.875 
Q 3.421875 33.640625 6 39.96875 
Q 8.59375 46.296875 13.765625 49.65625 
Q 18.953125 53.03125 25.34375 53.03125 
Q 30.03125 53.03125 33.6875 51.046875 
Q 37.359375 49.078125 39.65625 45.90625 
L 39.65625 71.578125 
L 48.390625 71.578125 
L 48.390625 0 
z
M 12.453125 25.875 
Q 12.453125 15.921875 16.640625 10.984375 
Q 20.84375 6.0625 26.5625 6.0625 
Q 32.328125 6.0625 36.34375 10.765625 
Q 40.375 15.484375 40.375 25.140625 
Q 40.375 35.796875 36.265625 40.765625 
Q 32.171875 45.75 26.171875 45.75 
Q 20.3125 45.75 16.375 40.96875 
Q 12.453125 36.1875 12.453125 25.875 
z
" id="ArialMT-100"/>
      <path d="M 6.59375 0 
L 6.59375 51.859375 
L 14.5 51.859375 
L 14.5 44.484375 
Q 20.21875 53.03125 31 53.03125 
Q 35.6875 53.03125 39.625 51.34375 
Q 43.5625 49.65625 45.515625 46.921875 
Q 47.46875 44.1875 48.25 40.4375 
Q 48.734375 37.984375 48.734375 31.890625 
L 48.734375 0 
L 39.9375 0 
L 39.9375 31.546875 
Q 39.9375 36.921875 38.90625 39.578125 
Q 37.890625 42.234375 35.28125 43.8125 
Q 32.671875 45.40625 29.15625 45.40625 
Q 23.53125 45.40625 19.453125 41.84375 
Q 15.375 38.28125 15.375 28.328125 
L 15.375 0 
z
" id="ArialMT-110"/>
      <path d="M 7.71875 0 
L 7.71875 71.578125 
L 34.71875 71.578125 
Q 41.84375 71.578125 45.609375 70.90625 
Q 50.875 70.015625 54.4375 67.546875 
Q 58.015625 65.09375 60.1875 60.640625 
Q 62.359375 56.203125 62.359375 50.875 
Q 62.359375 41.75 56.546875 35.421875 
Q 50.734375 29.109375 35.546875 29.109375 
L 17.1875 29.109375 
L 17.1875 0 
z
M 17.1875 37.546875 
L 35.6875 37.546875 
Q 44.875 37.546875 48.734375 40.96875 
Q 52.59375 44.390625 52.59375 50.59375 
Q 52.59375 55.078125 50.3125 58.265625 
Q 48.046875 61.46875 44.34375 62.5 
Q 41.9375 63.140625 35.5 63.140625 
L 17.1875 63.140625 
z
" id="ArialMT-80"/>
     </defs>
     <use xlink:href="#ArialMT-65"/>
     <use x="64.949219" xlink:href="#ArialMT-118"/>
     <use x="114.949219" xlink:href="#ArialMT-101"/>
     <use x="170.564453" xlink:href="#ArialMT-114"/>
     <use x="203.865234" xlink:href="#ArialMT-97"/>
     <use x="259.480469" xlink:href="#ArialMT-103"/>
     <use x="315.095703" xlink:href="#ArialMT-101"/>
     <use x="370.710938" xlink:href="#ArialMT-32"/>
     <use x="398.494141" xlink:href="#ArialMT-69"/>
     <use x="465.193359" xlink:href="#ArialMT-102"/>
     <use x="491.226562" xlink:href="#ArialMT-102"/>
     <use x="519.009766" xlink:href="#ArialMT-101"/>
     <use x="574.625" xlink:href="#ArialMT-99"/>
     <use x="624.625" xlink:href="#ArialMT-116"/>
     <use x="652.408203" xlink:href="#ArialMT-32"/>
     <use x="680.191406" xlink:href="#ArialMT-111"/>
     <use x="735.806641" xlink:href="#ArialMT-102"/>
     <use x="763.589844" xlink:href="#ArialMT-32"/>
     <use x="791.373047" xlink:href="#ArialMT-90"/>
     <use x="852.457031" xlink:href="#ArialMT-105"/>
     <use x="874.673828" xlink:href="#ArialMT-112"/>
     <use x="930.289062" xlink:href="#ArialMT-99"/>
     <use x="980.289062" xlink:href="#ArialMT-111"/>
     <use x="1035.904297" xlink:href="#ArialMT-100"/>
     <use x="1091.519531" xlink:href="#ArialMT-101"/>
     <use x="1147.134766" xlink:href="#ArialMT-32"/>
     <use x="1174.917969" xlink:href="#ArialMT-111"/>
     <use x="1230.533203" xlink:href="#ArialMT-110"/>
     <use x="1286.148438" xlink:href="#ArialMT-32"/>
     <use x="1313.931641" xlink:href="#ArialMT-80"/>
     <use x="1380.630859" xlink:href="#ArialMT-114"/>
     <use x="1413.931641" xlink:href="#ArialMT-105"/>
     <use x="1436.148438" xlink:href="#ArialMT-99"/>
     <use x="1486.148438" xlink:href="#ArialMT-101"/>
    </g>
   </g>
  </g>
  <g id="axes_2">
   <g id="patch_27">
    <path d="M 409.531445 516.019531 
L 705.706445 516.019531 
L 705.706445 28.119531 
L 409.531445 28.119531 
z
" style="fill:#eaeaf2;"/>
   </g>
   <g id="matplotlib.axis_3">
    <g id="xtick_6">
     <g id="line2d_26">
      <path clip-path="url(#p2b80d73eef)" d="M 409.531445 516.019531 
L 409.531445 28.119531 
" style="fill:none;stroke:#ffffff;stroke-linecap:round;"/>
     </g>
     <g id="text_28">
      <!-- $0 -->
      <g style="fill:#262626;" transform="translate(401.885156 535.361523)scale(0.1375 -0.1375)">
       <use xlink:href="#ArialMT-36"/>
       <use x="55.615234" xlink:href="#ArialMT-48"/>
      </g>
     </g>
    </g>
    <g id="xtick_7">
     <g id="line2d_27">
      <path clip-path="url(#p2b80d73eef)" d="M 474.004915 516.019531 
L 474.004915 28.119531 
" style="fill:none;stroke:#ffffff;stroke-linecap:round;"/>
     </g>
     <g id="text_29">
      <!-- $200K -->
      <g style="fill:#262626;" transform="translate(454.126497 535.361523)scale(0.1375 -0.1375)">
       <use xlink:href="#ArialMT-36"/>
       <use x="55.615234" xlink:href="#ArialMT-50"/>
       <use x="111.230469" xlink:href="#ArialMT-48"/>
       <use x="166.845703" xlink:href="#ArialMT-48"/>
       <use x="222.460938" xlink:href="#ArialMT-75"/>
      </g>
     </g>
    </g>
    <g id="xtick_8">
     <g id="line2d_28">
      <path clip-path="url(#p2b80d73eef)" d="M 538.478384 516.019531 
L 538.478384 28.119531 
" style="fill:none;stroke:#ffffff;stroke-linecap:round;"/>
     </g>
     <g id="text_30">
      <!-- $400K -->
      <g style="fill:#262626;" transform="translate(518.599966 535.361523)scale(0.1375 -0.1375)">
       <use xlink:href="#ArialMT-36"/>
       <use x="55.615234" xlink:href="#ArialMT-52"/>
       <use x="111.230469" xlink:href="#ArialMT-48"/>
       <use x="166.845703" xlink:href="#ArialMT-48"/>
       <use x="222.460938" xlink:href="#ArialMT-75"/>
      </g>
     </g>
    </g>
    <g id="xtick_9">
     <g id="line2d_29">
      <path clip-path="url(#p2b80d73eef)" d="M 602.951853 516.019531 
L 602.951853 28.119531 
" style="fill:none;stroke:#ffffff;stroke-linecap:round;"/>
     </g>
     <g id="text_31">
      <!-- $600K -->
      <g style="fill:#262626;" transform="translate(583.073436 535.361523)scale(0.1375 -0.1375)">
       <use xlink:href="#ArialMT-36"/>
       <use x="55.615234" xlink:href="#ArialMT-54"/>
       <use x="111.230469" xlink:href="#ArialMT-48"/>
       <use x="166.845703" xlink:href="#ArialMT-48"/>
       <use x="222.460938" xlink:href="#ArialMT-75"/>
      </g>
     </g>
    </g>
    <g id="xtick_10">
     <g id="line2d_30">
      <path clip-path="url(#p2b80d73eef)" d="M 667.425323 516.019531 
L 667.425323 28.119531 
" style="fill:none;stroke:#ffffff;stroke-linecap:round;"/>
     </g>
     <g id="text_32">
      <!-- $800K -->
      <g style="fill:#262626;" transform="translate(647.546905 535.361523)scale(0.1375 -0.1375)">
       <use xlink:href="#ArialMT-36"/>
       <use x="55.615234" xlink:href="#ArialMT-56"/>
       <use x="111.230469" xlink:href="#ArialMT-48"/>
       <use x="166.845703" xlink:href="#ArialMT-48"/>
       <use x="222.460938" xlink:href="#ArialMT-75"/>
      </g>
     </g>
    </g>
    <g id="text_33">
     <!-- Price -->
     <g style="fill:#262626;" transform="translate(540.531836 558.831055)scale(0.15 -0.15)">
      <use xlink:href="#ArialMT-80"/>
      <use x="66.699219" xlink:href="#ArialMT-114"/>
      <use x="100" xlink:href="#ArialMT-105"/>
      <use x="122.216797" xlink:href="#ArialMT-99"/>
      <use x="172.216797" xlink:href="#ArialMT-101"/>
     </g>
    </g>
   </g>
   <g id="matplotlib.axis_4">
    <g id="ytick_21">
     <g id="text_34">
      <!-- 98039 -->
      <g style="fill:#262626;" transform="translate(361.8 45.238027)scale(0.1375 -0.1375)">
       <use xlink:href="#ArialMT-57"/>
       <use x="55.615234" xlink:href="#ArialMT-56"/>
       <use x="111.230469" xlink:href="#ArialMT-48"/>
       <use x="166.845703" xlink:href="#ArialMT-51"/>
       <use x="222.460938" xlink:href="#ArialMT-57"/>
      </g>
     </g>
    </g>
    <g id="ytick_22">
     <g id="text_35">
      <!-- 98004 -->
      <g style="fill:#262626;" transform="translate(361.8 69.633027)scale(0.1375 -0.1375)">
       <use xlink:href="#ArialMT-57"/>
       <use x="55.615234" xlink:href="#ArialMT-56"/>
       <use x="111.230469" xlink:href="#ArialMT-48"/>
       <use x="166.845703" xlink:href="#ArialMT-48"/>
       <use x="222.460938" xlink:href="#ArialMT-52"/>
      </g>
     </g>
    </g>
    <g id="ytick_23">
     <g id="text_36">
      <!-- 98040 -->
      <g style="fill:#262626;" transform="translate(361.8 94.028027)scale(0.1375 -0.1375)">
       <use xlink:href="#ArialMT-57"/>
       <use x="55.615234" xlink:href="#ArialMT-56"/>
       <use x="111.230469" xlink:href="#ArialMT-48"/>
       <use x="166.845703" xlink:href="#ArialMT-52"/>
       <use x="222.460938" xlink:href="#ArialMT-48"/>
      </g>
     </g>
    </g>
    <g id="ytick_24">
     <g id="text_37">
      <!-- 98112 -->
      <g style="fill:#262626;" transform="translate(362.814062 118.423027)scale(0.1375 -0.1375)">
       <use xlink:href="#ArialMT-57"/>
       <use x="55.615234" xlink:href="#ArialMT-56"/>
       <use x="111.230469" xlink:href="#ArialMT-49"/>
       <use x="159.470703" xlink:href="#ArialMT-49"/>
       <use x="215.085938" xlink:href="#ArialMT-50"/>
      </g>
     </g>
    </g>
    <g id="ytick_25">
     <g id="text_38">
      <!-- 98005 -->
      <g style="fill:#262626;" transform="translate(361.8 142.818027)scale(0.1375 -0.1375)">
       <use xlink:href="#ArialMT-57"/>
       <use x="55.615234" xlink:href="#ArialMT-56"/>
       <use x="111.230469" xlink:href="#ArialMT-48"/>
       <use x="166.845703" xlink:href="#ArialMT-48"/>
       <use x="222.460938" xlink:href="#ArialMT-53"/>
      </g>
     </g>
    </g>
    <g id="ytick_26">
     <g id="text_39">
      <!-- 98075 -->
      <g style="fill:#262626;" transform="translate(361.8 167.213027)scale(0.1375 -0.1375)">
       <use xlink:href="#ArialMT-57"/>
       <use x="55.615234" xlink:href="#ArialMT-56"/>
       <use x="111.230469" xlink:href="#ArialMT-48"/>
       <use x="166.845703" xlink:href="#ArialMT-55"/>
       <use x="222.460938" xlink:href="#ArialMT-53"/>
      </g>
     </g>
    </g>
    <g id="ytick_27">
     <g id="text_40">
      <!-- 98006 -->
      <g style="fill:#262626;" transform="translate(361.8 191.608027)scale(0.1375 -0.1375)">
       <use xlink:href="#ArialMT-57"/>
       <use x="55.615234" xlink:href="#ArialMT-56"/>
       <use x="111.230469" xlink:href="#ArialMT-48"/>
       <use x="166.845703" xlink:href="#ArialMT-48"/>
       <use x="222.460938" xlink:href="#ArialMT-54"/>
      </g>
     </g>
    </g>
    <g id="ytick_28">
     <g id="text_41">
      <!-- 98119 -->
      <g style="fill:#262626;" transform="translate(362.814062 216.003027)scale(0.1375 -0.1375)">
       <use xlink:href="#ArialMT-57"/>
       <use x="55.615234" xlink:href="#ArialMT-56"/>
       <use x="111.230469" xlink:href="#ArialMT-49"/>
       <use x="159.470703" xlink:href="#ArialMT-49"/>
       <use x="215.085938" xlink:href="#ArialMT-57"/>
      </g>
     </g>
    </g>
    <g id="ytick_29">
     <g id="text_42">
      <!-- 98109 -->
      <g style="fill:#262626;" transform="translate(361.8 240.398027)scale(0.1375 -0.1375)">
       <use xlink:href="#ArialMT-57"/>
       <use x="55.615234" xlink:href="#ArialMT-56"/>
       <use x="111.230469" xlink:href="#ArialMT-49"/>
       <use x="166.845703" xlink:href="#ArialMT-48"/>
       <use x="222.460938" xlink:href="#ArialMT-57"/>
      </g>
     </g>
    </g>
    <g id="ytick_30">
     <g id="text_43">
      <!-- 98102 -->
      <g style="fill:#262626;" transform="translate(361.8 264.793027)scale(0.1375 -0.1375)">
       <use xlink:href="#ArialMT-57"/>
       <use x="55.615234" xlink:href="#ArialMT-56"/>
       <use x="111.230469" xlink:href="#ArialMT-49"/>
       <use x="166.845703" xlink:href="#ArialMT-48"/>
       <use x="222.460938" xlink:href="#ArialMT-50"/>
      </g>
     </g>
    </g>
    <g id="ytick_31">
     <g id="text_44">
      <!-- 98199 -->
      <g style="fill:#262626;" transform="translate(361.8 289.188027)scale(0.1375 -0.1375)">
       <use xlink:href="#ArialMT-57"/>
       <use x="55.615234" xlink:href="#ArialMT-56"/>
       <use x="111.230469" xlink:href="#ArialMT-49"/>
       <use x="166.845703" xlink:href="#ArialMT-57"/>
       <use x="222.460938" xlink:href="#ArialMT-57"/>
      </g>
     </g>
    </g>
    <g id="ytick_32">
     <g id="text_45">
      <!-- 98033 -->
      <g style="fill:#262626;" transform="translate(361.8 313.583027)scale(0.1375 -0.1375)">
       <use xlink:href="#ArialMT-57"/>
       <use x="55.615234" xlink:href="#ArialMT-56"/>
       <use x="111.230469" xlink:href="#ArialMT-48"/>
       <use x="166.845703" xlink:href="#ArialMT-51"/>
       <use x="222.460938" xlink:href="#ArialMT-51"/>
      </g>
     </g>
    </g>
    <g id="ytick_33">
     <g id="text_46">
      <!-- 98105 -->
      <g style="fill:#262626;" transform="translate(361.8 337.978027)scale(0.1375 -0.1375)">
       <use xlink:href="#ArialMT-57"/>
       <use x="55.615234" xlink:href="#ArialMT-56"/>
       <use x="111.230469" xlink:href="#ArialMT-49"/>
       <use x="166.845703" xlink:href="#ArialMT-48"/>
       <use x="222.460938" xlink:href="#ArialMT-53"/>
      </g>
     </g>
    </g>
    <g id="ytick_34">
     <g id="text_47">
      <!-- 98077 -->
      <g style="fill:#262626;" transform="translate(361.8 362.373027)scale(0.1375 -0.1375)">
       <use xlink:href="#ArialMT-57"/>
       <use x="55.615234" xlink:href="#ArialMT-56"/>
       <use x="111.230469" xlink:href="#ArialMT-48"/>
       <use x="166.845703" xlink:href="#ArialMT-55"/>
       <use x="222.460938" xlink:href="#ArialMT-55"/>
      </g>
     </g>
    </g>
    <g id="ytick_35">
     <g id="text_48">
      <!-- 98074 -->
      <g style="fill:#262626;" transform="translate(361.8 386.768027)scale(0.1375 -0.1375)">
       <use xlink:href="#ArialMT-57"/>
       <use x="55.615234" xlink:href="#ArialMT-56"/>
       <use x="111.230469" xlink:href="#ArialMT-48"/>
       <use x="166.845703" xlink:href="#ArialMT-55"/>
       <use x="222.460938" xlink:href="#ArialMT-52"/>
      </g>
     </g>
    </g>
    <g id="ytick_36">
     <g id="text_49">
      <!-- 98053 -->
      <g style="fill:#262626;" transform="translate(361.8 411.163027)scale(0.1375 -0.1375)">
       <use xlink:href="#ArialMT-57"/>
       <use x="55.615234" xlink:href="#ArialMT-56"/>
       <use x="111.230469" xlink:href="#ArialMT-48"/>
       <use x="166.845703" xlink:href="#ArialMT-53"/>
       <use x="222.460938" xlink:href="#ArialMT-51"/>
      </g>
     </g>
    </g>
    <g id="ytick_37">
     <g id="text_50">
      <!-- 98052 -->
      <g style="fill:#262626;" transform="translate(361.8 435.558027)scale(0.1375 -0.1375)">
       <use xlink:href="#ArialMT-57"/>
       <use x="55.615234" xlink:href="#ArialMT-56"/>
       <use x="111.230469" xlink:href="#ArialMT-48"/>
       <use x="166.845703" xlink:href="#ArialMT-53"/>
       <use x="222.460938" xlink:href="#ArialMT-50"/>
      </g>
     </g>
    </g>
    <g id="ytick_38">
     <g id="text_51">
      <!-- 98029 -->
      <g style="fill:#262626;" transform="translate(361.8 459.953027)scale(0.1375 -0.1375)">
       <use xlink:href="#ArialMT-57"/>
       <use x="55.615234" xlink:href="#ArialMT-56"/>
       <use x="111.230469" xlink:href="#ArialMT-48"/>
       <use x="166.845703" xlink:href="#ArialMT-50"/>
       <use x="222.460938" xlink:href="#ArialMT-57"/>
      </g>
     </g>
    </g>
    <g id="ytick_39">
     <g id="text_52">
      <!-- 98122 -->
      <g style="fill:#262626;" transform="translate(361.8 484.348027)scale(0.1375 -0.1375)">
       <use xlink:href="#ArialMT-57"/>
       <use x="55.615234" xlink:href="#ArialMT-56"/>
       <use x="111.230469" xlink:href="#ArialMT-49"/>
       <use x="166.845703" xlink:href="#ArialMT-50"/>
       <use x="222.460938" xlink:href="#ArialMT-50"/>
      </g>
     </g>
    </g>
    <g id="ytick_40">
     <g id="text_53">
      <!-- 98027 -->
      <g style="fill:#262626;" transform="translate(361.8 508.743027)scale(0.1375 -0.1375)">
       <use xlink:href="#ArialMT-57"/>
       <use x="55.615234" xlink:href="#ArialMT-56"/>
       <use x="111.230469" xlink:href="#ArialMT-48"/>
       <use x="166.845703" xlink:href="#ArialMT-50"/>
       <use x="222.460938" xlink:href="#ArialMT-55"/>
      </g>
     </g>
    </g>
   </g>
   <g id="patch_28">
    <path clip-path="url(#p2b80d73eef)" d="M 409.531445 30.559031 
L 691.602874 30.559031 
L 691.602874 50.075031 
L 409.531445 50.075031 
z
" style="fill:#75acbc;stroke:#ffffff;stroke-linejoin:miter;"/>
   </g>
   <g id="patch_29">
    <path clip-path="url(#p2b80d73eef)" d="M 409.531445 54.954031 
L 686.805349 54.954031 
L 686.805349 74.470031 
L 409.531445 74.470031 
z
" style="fill:#75acbc;stroke:#ffffff;stroke-linejoin:miter;"/>
   </g>
   <g id="patch_30">
    <path clip-path="url(#p2b80d73eef)" d="M 409.531445 79.349031 
L 683.144742 79.349031 
L 683.144742 98.865031 
L 409.531445 98.865031 
z
" style="fill:#beb182;stroke:#ffffff;stroke-linejoin:miter;"/>
   </g>
   <g id="patch_31">
    <path clip-path="url(#p2b80d73eef)" d="M 409.531445 103.744031 
L 661.602624 103.744031 
L 661.602624 123.260031 
L 409.531445 123.260031 
z
" style="fill:#629b6f;stroke:#ffffff;stroke-linejoin:miter;"/>
   </g>
   <g id="patch_32">
    <path clip-path="url(#p2b80d73eef)" d="M 409.531445 128.139031 
L 654.925529 128.139031 
L 654.925529 147.655031 
L 409.531445 147.655031 
z
" style="fill:#5c76a0;stroke:#ffffff;stroke-linejoin:miter;"/>
   </g>
   <g id="patch_33">
    <path clip-path="url(#p2b80d73eef)" d="M 409.531445 152.534031 
L 646.471445 152.534031 
L 646.471445 172.050031 
L 409.531445 172.050031 
z
" style="fill:#629b6f;stroke:#ffffff;stroke-linejoin:miter;"/>
   </g>
   <g id="patch_34">
    <path clip-path="url(#p2b80d73eef)" d="M 409.531445 176.929031 
L 645.105868 176.929031 
L 645.105868 196.445031 
L 409.531445 196.445031 
z
" style="fill:#cd98be;stroke:#ffffff;stroke-linejoin:miter;"/>
   </g>
   <g id="patch_35">
    <path clip-path="url(#p2b80d73eef)" d="M 409.531445 201.324031 
L 643.774909 201.324031 
L 643.774909 220.840031 
L 409.531445 220.840031 
z
" style="fill:#c68a69;stroke:#ffffff;stroke-linejoin:miter;"/>
   </g>
   <g id="patch_36">
    <path clip-path="url(#p2b80d73eef)" d="M 409.531445 225.719031 
L 640.346466 225.719031 
L 640.346466 245.235031 
L 409.531445 245.235031 
z
" style="fill:#8c8c8c;stroke:#ffffff;stroke-linejoin:miter;"/>
   </g>
   <g id="patch_37">
    <path clip-path="url(#p2b80d73eef)" d="M 409.531445 250.114031 
L 633.576751 250.114031 
L 633.576751 269.630031 
L 409.531445 269.630031 
z
" style="fill:#75acbc;stroke:#ffffff;stroke-linejoin:miter;"/>
   </g>
   <g id="patch_38">
    <path clip-path="url(#p2b80d73eef)" d="M 409.531445 274.509031 
L 628.096507 274.509031 
L 628.096507 294.025031 
L 409.531445 294.025031 
z
" style="fill:#cd98be;stroke:#ffffff;stroke-linejoin:miter;"/>
   </g>
   <g id="patch_39">
    <path clip-path="url(#p2b80d73eef)" d="M 409.531445 298.904031 
L 627.129404 298.904031 
L 627.129404 318.420031 
L 409.531445 318.420031 
z
" style="fill:#75acbc;stroke:#ffffff;stroke-linejoin:miter;"/>
   </g>
   <g id="patch_40">
    <path clip-path="url(#p2b80d73eef)" d="M 409.531445 323.299031 
L 626.001119 323.299031 
L 626.001119 342.815031 
L 409.531445 342.815031 
z
" style="fill:#b16164;stroke:#ffffff;stroke-linejoin:miter;"/>
   </g>
   <g id="patch_41">
    <path clip-path="url(#p2b80d73eef)" d="M 409.531445 347.694031 
L 619.86808 347.694031 
L 619.86808 367.210031 
L 409.531445 367.210031 
z
" style="fill:#5c76a0;stroke:#ffffff;stroke-linejoin:miter;"/>
   </g>
   <g id="patch_42">
    <path clip-path="url(#p2b80d73eef)" d="M 409.531445 372.089031 
L 617.458384 372.089031 
L 617.458384 391.605031 
L 409.531445 391.605031 
z
" style="fill:#877da8;stroke:#ffffff;stroke-linejoin:miter;"/>
   </g>
   <g id="patch_43">
    <path clip-path="url(#p2b80d73eef)" d="M 409.531445 396.484031 
L 614.234711 396.484031 
L 614.234711 416.000031 
L 409.531445 416.000031 
z
" style="fill:#8b7868;stroke:#ffffff;stroke-linejoin:miter;"/>
   </g>
   <g id="patch_44">
    <path clip-path="url(#p2b80d73eef)" d="M 409.531445 420.879031 
L 607.787364 420.879031 
L 607.787364 440.395031 
L 409.531445 440.395031 
z
" style="fill:#b16164;stroke:#ffffff;stroke-linejoin:miter;"/>
   </g>
   <g id="patch_45">
    <path clip-path="url(#p2b80d73eef)" d="M 409.531445 445.274031 
L 594.731486 445.274031 
L 594.731486 464.790031 
L 409.531445 464.790031 
z
" style="fill:#8b7868;stroke:#ffffff;stroke-linejoin:miter;"/>
   </g>
   <g id="patch_46">
    <path clip-path="url(#p2b80d73eef)" d="M 409.531445 469.669031 
L 594.570302 469.669031 
L 594.570302 489.185031 
L 409.531445 489.185031 
z
" style="fill:#8c8c8c;stroke:#ffffff;stroke-linejoin:miter;"/>
   </g>
   <g id="patch_47">
    <path clip-path="url(#p2b80d73eef)" d="M 409.531445 494.064031 
L 593.6032 494.064031 
L 593.6032 513.580031 
L 409.531445 513.580031 
z
" style="fill:#877da8;stroke:#ffffff;stroke-linejoin:miter;"/>
   </g>
   <g id="line2d_31">
    <path clip-path="url(#p2b80d73eef)" style="fill:none;stroke:#424242;stroke-linecap:round;stroke-width:2.7;"/>
   </g>
   <g id="line2d_32">
    <path clip-path="url(#p2b80d73eef)" style="fill:none;stroke:#424242;stroke-linecap:round;stroke-width:2.7;"/>
   </g>
   <g id="line2d_33">
    <path clip-path="url(#p2b80d73eef)" style="fill:none;stroke:#424242;stroke-linecap:round;stroke-width:2.7;"/>
   </g>
   <g id="line2d_34">
    <path clip-path="url(#p2b80d73eef)" style="fill:none;stroke:#424242;stroke-linecap:round;stroke-width:2.7;"/>
   </g>
   <g id="line2d_35">
    <path clip-path="url(#p2b80d73eef)" style="fill:none;stroke:#424242;stroke-linecap:round;stroke-width:2.7;"/>
   </g>
   <g id="line2d_36">
    <path clip-path="url(#p2b80d73eef)" style="fill:none;stroke:#424242;stroke-linecap:round;stroke-width:2.7;"/>
   </g>
   <g id="line2d_37">
    <path clip-path="url(#p2b80d73eef)" style="fill:none;stroke:#424242;stroke-linecap:round;stroke-width:2.7;"/>
   </g>
   <g id="line2d_38">
    <path clip-path="url(#p2b80d73eef)" style="fill:none;stroke:#424242;stroke-linecap:round;stroke-width:2.7;"/>
   </g>
   <g id="line2d_39">
    <path clip-path="url(#p2b80d73eef)" style="fill:none;stroke:#424242;stroke-linecap:round;stroke-width:2.7;"/>
   </g>
   <g id="line2d_40">
    <path clip-path="url(#p2b80d73eef)" style="fill:none;stroke:#424242;stroke-linecap:round;stroke-width:2.7;"/>
   </g>
   <g id="line2d_41">
    <path clip-path="url(#p2b80d73eef)" style="fill:none;stroke:#424242;stroke-linecap:round;stroke-width:2.7;"/>
   </g>
   <g id="line2d_42">
    <path clip-path="url(#p2b80d73eef)" style="fill:none;stroke:#424242;stroke-linecap:round;stroke-width:2.7;"/>
   </g>
   <g id="line2d_43">
    <path clip-path="url(#p2b80d73eef)" style="fill:none;stroke:#424242;stroke-linecap:round;stroke-width:2.7;"/>
   </g>
   <g id="line2d_44">
    <path clip-path="url(#p2b80d73eef)" style="fill:none;stroke:#424242;stroke-linecap:round;stroke-width:2.7;"/>
   </g>
   <g id="line2d_45">
    <path clip-path="url(#p2b80d73eef)" style="fill:none;stroke:#424242;stroke-linecap:round;stroke-width:2.7;"/>
   </g>
   <g id="line2d_46">
    <path clip-path="url(#p2b80d73eef)" style="fill:none;stroke:#424242;stroke-linecap:round;stroke-width:2.7;"/>
   </g>
   <g id="line2d_47">
    <path clip-path="url(#p2b80d73eef)" style="fill:none;stroke:#424242;stroke-linecap:round;stroke-width:2.7;"/>
   </g>
   <g id="line2d_48">
    <path clip-path="url(#p2b80d73eef)" style="fill:none;stroke:#424242;stroke-linecap:round;stroke-width:2.7;"/>
   </g>
   <g id="line2d_49">
    <path clip-path="url(#p2b80d73eef)" style="fill:none;stroke:#424242;stroke-linecap:round;stroke-width:2.7;"/>
   </g>
   <g id="line2d_50">
    <path clip-path="url(#p2b80d73eef)" style="fill:none;stroke:#424242;stroke-linecap:round;stroke-width:2.7;"/>
   </g>
   <g id="patch_48">
    <path d="M 409.531445 516.019531 
L 409.531445 28.119531 
" style="fill:none;stroke:#ffffff;stroke-linecap:square;stroke-linejoin:miter;stroke-width:1.25;"/>
   </g>
   <g id="patch_49">
    <path d="M 705.706445 516.019531 
L 705.706445 28.119531 
" style="fill:none;stroke:#ffffff;stroke-linecap:square;stroke-linejoin:miter;stroke-width:1.25;"/>
   </g>
   <g id="patch_50">
    <path d="M 409.531445 516.019531 
L 705.706445 516.019531 
" style="fill:none;stroke:#ffffff;stroke-linecap:square;stroke-linejoin:miter;stroke-width:1.25;"/>
   </g>
   <g id="patch_51">
    <path d="M 409.531445 28.119531 
L 705.706445 28.119531 
" style="fill:none;stroke:#ffffff;stroke-linecap:square;stroke-linejoin:miter;stroke-width:1.25;"/>
   </g>
   <g id="text_54">
    <!-- Median Price by Zipcode -->
    <g style="fill:#262626;" transform="translate(475.083789 18.119531)scale(0.15 -0.15)">
     <defs>
      <path d="M 7.421875 0 
L 7.421875 71.578125 
L 21.6875 71.578125 
L 38.625 20.90625 
Q 40.96875 13.8125 42.046875 10.296875 
Q 43.265625 14.203125 45.84375 21.78125 
L 62.984375 71.578125 
L 75.734375 71.578125 
L 75.734375 0 
L 66.609375 0 
L 66.609375 59.90625 
L 45.796875 0 
L 37.25 0 
L 16.546875 60.9375 
L 16.546875 0 
z
" id="ArialMT-77"/>
      <path d="M 14.703125 0 
L 6.546875 0 
L 6.546875 71.578125 
L 15.328125 71.578125 
L 15.328125 46.046875 
Q 20.90625 53.03125 29.546875 53.03125 
Q 34.328125 53.03125 38.59375 51.09375 
Q 42.875 49.171875 45.625 45.671875 
Q 48.390625 42.1875 49.953125 37.25 
Q 51.515625 32.328125 51.515625 26.703125 
Q 51.515625 13.375 44.921875 6.09375 
Q 38.328125 -1.171875 29.109375 -1.171875 
Q 19.921875 -1.171875 14.703125 6.5 
z
M 14.59375 26.3125 
Q 14.59375 17 17.140625 12.84375 
Q 21.296875 6.0625 28.375 6.0625 
Q 34.125 6.0625 38.328125 11.0625 
Q 42.53125 16.0625 42.53125 25.984375 
Q 42.53125 36.140625 38.5 40.96875 
Q 34.46875 45.796875 28.765625 45.796875 
Q 23 45.796875 18.796875 40.796875 
Q 14.59375 35.796875 14.59375 26.3125 
z
" id="ArialMT-98"/>
      <path d="M 6.203125 -19.96875 
L 5.21875 -11.71875 
Q 8.109375 -12.5 10.25 -12.5 
Q 13.1875 -12.5 14.9375 -11.515625 
Q 16.703125 -10.546875 17.828125 -8.796875 
Q 18.65625 -7.46875 20.515625 -2.25 
Q 20.75 -1.515625 21.296875 -0.09375 
L 1.609375 51.859375 
L 11.078125 51.859375 
L 21.875 21.828125 
Q 23.96875 16.109375 25.640625 9.8125 
Q 27.15625 15.875 29.25 21.625 
L 40.328125 51.859375 
L 49.125 51.859375 
L 29.390625 -0.875 
Q 26.21875 -9.421875 24.46875 -12.640625 
Q 22.125 -17 19.09375 -19.015625 
Q 16.0625 -21.046875 11.859375 -21.046875 
Q 9.328125 -21.046875 6.203125 -19.96875 
z
" id="ArialMT-121"/>
     </defs>
     <use xlink:href="#ArialMT-77"/>
     <use x="83.300781" xlink:href="#ArialMT-101"/>
     <use x="138.916016" xlink:href="#ArialMT-100"/>
     <use x="194.53125" xlink:href="#ArialMT-105"/>
     <use x="216.748047" xlink:href="#ArialMT-97"/>
     <use x="272.363281" xlink:href="#ArialMT-110"/>
     <use x="327.978516" xlink:href="#ArialMT-32"/>
     <use x="355.761719" xlink:href="#ArialMT-80"/>
     <use x="422.460938" xlink:href="#ArialMT-114"/>
     <use x="455.761719" xlink:href="#ArialMT-105"/>
     <use x="477.978516" xlink:href="#ArialMT-99"/>
     <use x="527.978516" xlink:href="#ArialMT-101"/>
     <use x="583.59375" xlink:href="#ArialMT-32"/>
     <use x="611.376953" xlink:href="#ArialMT-98"/>
     <use x="666.992188" xlink:href="#ArialMT-121"/>
     <use x="716.992188" xlink:href="#ArialMT-32"/>
     <use x="744.775391" xlink:href="#ArialMT-90"/>
     <use x="805.859375" xlink:href="#ArialMT-105"/>
     <use x="828.076172" xlink:href="#ArialMT-112"/>
     <use x="883.691406" xlink:href="#ArialMT-99"/>
     <use x="933.691406" xlink:href="#ArialMT-111"/>
     <use x="989.306641" xlink:href="#ArialMT-100"/>
     <use x="1044.921875" xlink:href="#ArialMT-101"/>
    </g>
   </g>
  </g>
 </g>
 <defs>
  <clipPath id="p7c0c47f6be">
   <rect height="487.9" width="296.175" x="54.931445" y="28.119531"/>
  </clipPath>
  <clipPath id="p2b80d73eef">
   <rect height="487.9" width="296.175" x="409.531445" y="28.119531"/>
  </clipPath>
 </defs>
</svg>
